<?xml version="1.0" encoding="UTF-8" standalone="no"?>
<svg
   width="512"
   height="512"
   viewBox="0 0 512 512"
   version="1.1"
   id="svg1"
   xml:space="preserve"
   xmlns="http://www.w3.org/2000/svg"
   xmlns:svg="http://www.w3.org/2000/svg"><defs
   id="defs1" />
    <path
   d="M 256,256 Q 236.2,256 222.1,241.9 208,227.8 208,208 208,188.2 222.1,174.1 236.2,160 256,160 q 19.8,0 33.9,14.1 14.1,14.1 14.1,33.9 0,19.8 -14.1,33.9 Q 275.8,256 256,256 Z m -96,72 v -9.6 q 0,-10.2 5.25,-18.75 5.25,-8.55 13.95,-13.05 18.6,-9.3 37.8,-13.95 19.2,-4.65 39,-4.65 19.8,0 39,4.65 19.2,4.65 37.8,13.95 8.7,4.5 13.95,13.05 5.25,8.55 5.25,18.75 v 9.6 q 0,9.9 -7.05,16.95 Q 337.9,352 328,352 H 184 q -9.9,0 -16.95,-7.05 Q 160,337.9 160,328 Z"
   id="path1"
   style="fill:#ffffff;stroke-width:0.3" /></svg>
